<?xml version="1.0" encoding="utf-8" ?><svg xmlns="http://www.w3.org/2000/svg" xmlns:xlink="http://www.w3.org/1999/xlink" width="1024" height="1024" viewBox="0 0 1024 1024"><path fill="#FBFBFA" d="M0 0L1024 0L1024 1024L0 1024L0 0Z"/><path fill="#0F0F0F" d="M640.404 161.48C644.11 154.881 647.197 152.698 652.065 147.056C653.274 145.654 654.164 140.269 655.928 138.178L656.628 138.572C658.488 143.354 657.732 150.946 657.656 156.273C664.26 149.788 664.509 146.788 665.501 137.948C669.164 150.949 668.98 161.15 663.912 173.677C670.606 179.91 680.43 190.429 683.685 199.03C683.515 200.125 682.867 204.194 683.001 205.153C684.452 215.473 691.676 225.624 696.341 234.851C698.914 238.91 700.649 245.755 704.116 249C706.891 251.597 707.221 253.858 705.951 257.618C704.117 263.049 700.8 272.356 695.791 275.474C692.253 277.676 688.995 272.797 687.726 270.323C687.306 270.935 686.883 271.545 686.455 272.152C686.505 273.837 686.534 273.946 686.195 275.684C683.468 279.618 678.918 279.163 675.218 276.863C669.671 273.929 671.796 264.796 669.141 261.114C665.122 255.54 656.22 247.505 650.762 243.569C630.41 243.698 614.893 238.97 617.66 214.694L616.771 212.646C613.133 221.283 611.942 227.987 616.61 236.544C604.062 249.275 592.169 286.271 591.632 304.461C591.415 311.834 597.311 326.658 600.139 334.184C609.431 358.906 601.57 386.502 584.555 406.572C586.275 390.481 583.11 373.737 573.533 360.444L572.859 361.701C576.41 370.446 578.814 376.632 580.244 386.143C581.701 395.834 579.821 402.674 579.545 411.947C579.246 422.013 579.466 432.31 579.197 442.455C578.947 451.908 578.338 461.671 578.627 471.087C578.841 478.063 585.602 483.846 586.343 490.517C586.844 495.025 584.22 501.738 584.597 506.223C585.087 512.058 586.66 518.652 588.852 524.098C589.526 525.774 591.789 530.734 592.082 532.159C593.1 537.114 591.058 540.041 595.432 543.454C598.389 545.76 599.82 554.153 601.52 558.071L601.043 559.076C594.285 557.923 582.326 557.896 574.843 557.429C575.549 553.983 576.248 550.384 577.172 546.981C577.701 545.033 578.742 545.022 580.678 544.067L580.605 543.272C579.093 542.443 577.75 542.048 576.13 541.488C573.872 538.934 578.645 530.709 578.299 526.067C577.96 521.505 576.883 518.771 576.013 514.54C574.364 506.523 569.059 503.242 566.031 496.282C564.369 492.344 565.679 483.745 565.045 480.376C563.03 469.655 557.82 449.935 551.287 441.526C545.349 433.881 544.851 433.719 543.752 424.068C541.783 422.029 539.605 420.393 537.524 418.068C528.773 408.288 526.542 399.833 525.02 387.291L523.517 386.844C523.335 403.327 525.731 416.193 538.819 427.161C535.398 427.591 528.4 428.396 525.373 429.324C511.143 433.687 501.704 438.069 486.392 439.766C456.551 443.072 426.624 439.95 396.835 443.037C385.539 444.207 371.878 447.565 360.981 450.969C366.398 435.889 367.636 428.696 369.274 412.905C369.032 411.845 368.936 411.877 368.19 410.951C361.567 448.234 349.007 476.857 315.27 494.791C307.773 498.776 298.856 509.926 293.803 516.613C287.217 527.101 283.613 534.45 273.623 541.675C271.321 543.34 263.207 569.73 262.785 573.779C261.602 585.111 262.442 592.491 259.309 604.378C259.959 605.032 262.485 607.588 262.794 608.269C265.57 614.37 267.518 622.418 269.535 628.814C260.884 628.688 249.617 628.307 241.005 627.602C241.382 621.901 241.691 616.195 241.932 610.486C257.546 600.954 246.691 598.094 240.532 589.415C244.133 578.158 247.408 581.085 250.553 574.937C259.164 558.1 259.267 536.993 256.206 519.183L256.516 518.518C263.456 503.924 284.756 505.48 286.851 482.536C288.489 464.598 281.561 456.338 274.817 440.294C266.099 415.681 270.856 392.304 283.444 370.582C244.224 371.326 210.718 399.197 210.665 440.171C210.652 450.912 214.933 460.294 217.624 470.451C225.963 504.824 210.764 542.719 175.939 554.895C157.635 561.294 142.469 559.663 124.636 552.658C124.204 552.534 123.07 552.36 122.903 551.793C123.318 551.249 127.936 551.653 128.878 551.724C147.446 550.516 167.26 537.261 169.394 517.602C172.148 492.229 155.04 470.324 150.716 445.98C148.237 432.199 149.706 417.997 154.954 405.014C162.812 385.018 179.938 370.485 199.29 362.247C230.46 348.978 257.126 350.492 287.903 362.532C300.093 348.731 310.365 338.889 328.195 332.64C365.636 319.516 396.907 339.664 434.848 325.418C472.969 311.105 483.699 282.543 504.459 251.067C515.366 234.529 528.564 217.305 542.811 204.074C564.213 184.331 590.421 170.549 618.817 164.104C626.188 162.459 632.852 161.197 640.404 161.48Z"/><path fill="#85868B" d="M368.19 410.951C368.301 409.88 368.983 402.89 369.633 402.494C369.96 402.857 369.672 411.849 369.274 412.905C369.032 411.845 368.936 411.877 368.19 410.951Z"/><path fill="#B5BABC" d="M523.952 377.603C524.336 379.067 524.947 385.622 525.02 387.291L523.517 386.844C523.305 383.945 523.728 380.556 523.952 377.603Z"/><path fill="#F0F1F1" d="M685.824 267.145L686.92 267.413C687.178 268.408 687.442 269.338 687.726 270.323C687.306 270.935 686.883 271.545 686.455 272.152C686.126 270.297 686.009 269.017 685.824 267.145Z"/><path fill="#F0F1F1" d="M616.771 212.646C617.522 210.937 618.402 209.652 619.369 208.077C618.694 210.422 618.212 212.32 617.66 214.694L616.771 212.646Z"/><path fill="#302F2E" d="M124.636 552.658C124.204 552.534 123.07 552.36 122.903 551.793C123.318 551.249 127.936 551.653 128.878 551.724C127.587 552.559 126.538 551.767 124.636 552.658Z"/><path fill="#5A575B" d="M685.824 267.145C685.416 266.1 685.432 265.342 685.346 264.219L685.908 263.693C685.829 263.579 685.751 263.464 685.673 263.35L685.714 263.343C686.464 263.98 686.711 266.381 686.92 267.413L685.824 267.145Z"/><path fill="#B5BABC" d="M572.859 361.701C572.602 361.234 571.44 359.555 571.742 358.906C572.226 358.598 573.321 360.189 573.533 360.444L572.859 361.701Z"/><path fill="#0F0F0F" d="M520.289 538.68C529.34 537.442 542.77 539.234 551.09 543.248C583.164 558.5 583.596 608.493 568.459 635.448C560.127 649.233 546.789 657.476 532.831 664.56C527.27 667.382 533.76 670.878 536.264 672.165C546.571 677.465 552.079 682.867 558.58 692.515C574.287 715.825 573.956 744.089 583.522 769.536C586.579 777.665 591.34 785.135 600.147 787.597C601.075 787.856 601.366 789.473 601.591 790.236C601.356 790.954 601.448 791.429 600.684 791.734C597.952 792.825 564.197 792.138 559.482 791.627C555.083 791.161 550.749 790.218 546.554 788.815C521.848 780.28 524.319 753.277 520.323 732.451C517.443 717.435 506.588 681.662 491.168 676.532C487.16 677.165 487.428 682.851 487.527 686.109C487.703 691.852 488.051 697.634 488.333 703.376C489.05 723.56 490.8 755.855 500.565 773.636C504.573 780.934 510.707 785.22 518.679 787.201C520.26 787.594 520.413 787.569 521.746 788.444C522.177 790.305 522.161 791.018 520.648 792.109C516.74 792.716 508.686 792.333 504.405 792.294L473.392 792.066L427.014 792.17C422.361 792.208 398.153 793.204 395.361 791.195C395.246 790.46 395.024 788.928 395.843 788.532C406.431 783.415 415.6 781.88 422.127 770.1C443.33 731.836 444.402 680.163 437.502 637.833C435.7 626.776 430.42 610.276 422.166 602.466C419.269 599.771 412.08 601.497 412.064 595.873C413.889 593.63 420.056 592.234 422.996 590.879C439.744 583.157 458.847 573.601 473.803 562.853C492.103 549.702 496.659 542.007 520.289 538.68Z"/><path fill="#FBFBFA" d="M496.818 560.512C497.767 560.443 498.718 560.417 499.669 560.434C504.128 560.536 508.867 563.715 511.66 566.976C531.804 590.496 531.455 638.436 508.758 659.406C503.978 663.147 492.958 669.305 487.316 665.163C486.526 663.71 486.274 661.545 486.265 659.832C486.117 632.677 485.537 605.096 489.136 578.133C489.905 572.379 492.918 564.712 496.818 560.512Z"/><path fill="#0F0F0F" d="M344.253 580.196C360.358 577.755 381.856 585.224 393.833 596.002C442.075 639.415 441.238 723.196 401.221 771.731C387.379 788.52 367.479 794.929 346.516 796.397C273.809 796.475 247.678 726.085 263.388 664.32C272.838 627.168 303.389 584.32 344.253 580.196Z"/><path fill="#FBFBFA" d="M320.391 605.073C326.153 604.628 330.589 605.018 335.816 608.21C357.159 621.24 370.868 656.883 377.199 680.639C383.56 704.507 387.905 749.271 376.469 771.765C374.089 776.446 370.194 778.436 365.359 779.551C344.643 778.634 327.063 743.15 319.33 726.191C308.624 702.712 284.381 614.489 320.391 605.073Z"/><path fill="#0F0F0F" d="M946.969 349.246L948.234 350.016C949.173 352.048 947.541 366.621 947.277 370.001L943.474 422.801C942.948 429.838 942.482 436.88 942.076 443.925C941.905 447.028 941.8 459.861 939.634 461.427C937.699 459.776 936.122 447.342 935.102 443.709C927.993 418.385 907.406 371.799 874.721 378.617C856.016 382.518 856.797 411.254 861.009 425.614C865.694 441.584 876.719 454.194 892.551 460.265C949.995 474.341 962.141 538.736 966.104 590.11C969.088 628.802 964.35 679.191 956.824 717.996C952.57 735.294 947.303 759.879 937.62 774.977C905.107 825.675 882.914 761.314 876.186 735.653C866.854 696.675 863.218 657.093 860.731 617.208C860.436 612.478 857.285 587.9 859.666 585.623C860.831 585.758 861.705 585.975 862.169 587.311C873.839 621.01 882.795 656.267 903.664 685.835C910.566 695.615 923.461 705.734 933.136 693.59C945.068 678.614 947.494 651.857 946.33 633.365C945.055 613.094 937.088 583.966 917.197 574.269C915.074 573.289 906.646 571.659 903.79 571.046C892.977 568.724 879.353 562.541 871.101 554.998C845.166 531.295 833.215 484.955 830.736 450.811C828.85 424.846 834.509 391.833 852.068 371.993C866.036 356.209 884.288 353.716 904.227 357.34C911.301 358.626 920.297 361.338 927.319 360.756C936.823 359.968 941.238 355.846 946.969 349.246Z"/><path fill="#0F0F0F" d="M816.883 406.195L818.352 406.71C820.065 408.807 821.447 426.906 821.911 430.851C824.436 452.242 826.758 473.656 828.876 495.09C829.74 503.474 833.201 530.897 832.662 537.592C831.362 538.565 832.101 538.237 830.273 538.339C827.835 536.423 824.723 524.093 823.083 520.308C817.91 508.366 813.34 496.938 803.787 487.615C795.329 479.362 779.367 479.331 770.965 487.739C766.836 491.871 767.695 500.571 768.218 506.151C769.753 522.542 772.111 539.092 773.979 555.476C775.196 565.974 776.173 576.838 777.761 587.269C778.22 589.21 778.502 591.808 780.249 593.043C785.897 597.036 793.012 589.372 796.956 585.765C810.302 573.562 813.106 556.688 814.347 539.474C814.528 536.95 813.766 531.811 815.131 529.881C817.002 529.468 816.171 529.313 817.731 530.229C819.612 533.314 820.962 550.133 821.561 554.81L828.839 612.374C830.692 627.396 833.047 642.743 834.491 657.786C834.718 660.149 834.512 660.483 833.195 661.906C828.929 662.525 828.899 656.756 827.51 653.665C820.278 637.563 813.163 618.606 796.971 609.424C794.322 607.922 790.028 606.447 787.005 607.506C785.148 608.138 783.657 609.547 782.921 611.366C778.978 621.205 784.001 661.283 784.556 673.372C785.406 691.885 787.778 713.277 789.586 731.999C790.484 741.286 794.333 751.358 803.645 755.085C822.264 750.701 834.046 728.621 840.001 712.245C845.346 699.019 848.321 675.711 850.066 661.615C850.593 657.36 850.502 651.628 850.869 647.26C851.066 644.912 851.248 645.095 852.706 643.858C853.409 643.939 853.966 643.811 854.207 644.442C856.225 649.728 856.668 661.169 857.252 666.622L863.634 728.481L868.086 766.291C868.977 773.972 870.495 783.818 869.978 791.314C867.089 792.766 834.396 792.217 828.352 792.218L751.415 792.126L720.739 792.214C715.389 792.257 704.089 792.711 699.464 791.707C698.356 790.443 698.735 791.187 698.587 789.272C701.702 785.881 707.993 785.442 711.726 782.486C724.641 772.258 730.671 760.007 734.866 744.265C749.409 689.699 732.574 568.182 709.726 516.202C708.913 514.353 707.971 511.92 706.695 510.352C704.833 508.064 701.388 506.382 700.055 503.787C699.569 502.839 699.683 502.561 699.952 501.602C706.017 497.976 719.748 494.581 727.258 490.87C764.774 472.33 801.895 447.049 816.883 406.195Z"/><path fill="#0F0F0F" d="M62.1142 569.848C66.7288 571.533 82.2002 581.83 88.1167 585.14C106.44 595.532 125.535 604.497 145.234 611.958C149.549 613.57 170.721 618.419 170.246 622.149C169.314 623.229 164.024 626.667 162.35 627.204C150.818 630.901 140.966 688 145.514 694.857C151.113 696.818 190.43 695.205 199.388 695.752C200.704 695.833 204.048 695.08 205.483 694.685C206.689 693.075 206.875 690.13 206.639 688.071C204.531 669.633 203.083 644.021 186.407 632.544C185.515 631.93 185.556 631.617 185.541 630.763C186.756 629.646 189.393 629.037 190.941 629.281C211.782 632.57 232.565 635.132 253.64 636.619C256.303 636.807 263.009 637.097 264.763 638.783C265.444 642.427 259.334 644.266 257.758 646.705C254.189 652.226 252.062 661.051 250.755 667.239C245.352 693.901 247.354 721.534 256.542 747.139C260.782 758.748 268.623 774.377 278.648 782.43C279.992 783.51 288.198 787.324 290.197 788.261C290.983 790.308 291.036 789.384 290.579 791.129C288.571 792.948 280.618 792.193 277.573 792.19L253.115 792.187L209.058 792.356C204.451 792.365 190.907 792.674 187.316 791.875C186.06 790.335 186.256 791.143 186.246 789.518C187.616 787.201 188.878 787.573 190.401 786.133C205.014 772.302 204.811 745.842 206.576 726.952C206.894 723.541 207.419 715.329 202.589 715.179C184.704 714.624 166.719 714.967 148.806 714.978C145.102 714.98 144.325 717.327 143.949 720.72C144.337 741.015 147.802 765.426 161.704 781.196C165.708 785.779 171.424 785.684 173.687 788.448C173.963 790.171 173.91 790.053 173.146 791.647C171.52 792.653 154.294 792.054 151.001 792.049L83.3885 792.186C80.4265 792.183 64.3415 792.525 62.7391 791.46C61.455 785.698 72.0449 785.236 76.1883 781.174C91.7666 765.9 98.4511 738.051 100.844 716.34C105.287 676.027 97.1634 627.657 76.2388 592.654C70.51 582.958 66.7127 580.922 60.681 573.245C60.699 571.498 61.0234 571.613 62.1142 569.848Z"/><path fill="#0F0F0F" d="M602.547 558.587C614.506 542.078 632.109 532.367 652.072 529.032C664.458 526.962 669.743 533.085 679.621 525.72C683.044 523.167 684.792 521.386 687.444 517.962C689.896 514.796 689.799 511.009 693.358 510.143C695.91 511.749 696.064 517.74 696.277 520.627C696.982 530.205 697.48 539.84 698.086 549.423C699.121 563.649 699.999 577.885 700.72 592.13C700.946 596.422 702.238 602.075 700.669 605.981C699.454 607.123 700.146 606.909 698.675 606.981C695.577 601.423 693.237 595.569 690.265 589.941C681.745 573.709 668.523 557.444 650.299 552.166C637.276 548.395 620.35 553.079 617.333 567.726C613.568 586.001 619.767 601.88 636.889 610.19C648.09 616.046 660.563 620.472 672.58 624.496C702.295 634.446 717.398 653.505 726.059 683.128C736.795 719.851 728.154 762.86 693.813 783.96C677.346 794.077 657.397 796.037 638.742 791.37C626.164 788.013 611.154 780.098 598.351 774.825C597.701 769.074 598.077 762.422 598.106 756.561C598.21 736.081 597.905 715.588 596.658 695.142C596.546 693.314 596.892 691.838 597.556 690.177C598.921 688.969 598.172 689.209 599.781 689.177C601.511 690.856 606.41 705.961 607.986 709.578C619.433 735.841 640.225 773.675 672.977 773.563C691.626 772.69 698.177 754.826 696.75 738.974C695.568 725.848 690.316 714.871 680.264 706.416C663.661 692.451 640.521 694.504 622.159 682.158C600.489 667.589 587.802 643.941 585.921 618.009C584.843 602.204 586.452 587.734 593.554 573.318C595.925 568.505 599.163 564.14 601.608 559.575L601.043 559.076L601.52 558.071L602.547 558.587Z"/><path fill="#B5BABC" d="M601.52 558.071L602.547 558.587L601.608 559.575L601.043 559.076L601.52 558.071Z"/><path fill="#0F0F0F" d="M403.765 445.692C405.3 445.428 409.472 445.407 411.224 445.352C400.397 471.519 389.664 476.882 367.516 492.667C344.192 509.289 356.752 517.812 374.663 529.187C383.363 534.712 393.015 539.173 401.747 544.273L402.237 544.564C403.785 553.613 407.191 562.035 414.693 567.724C414.783 575.458 414.43 583.191 413.634 590.884C407.643 588.908 398.912 586.21 393.178 583.51C392.432 583.159 392.65 582.363 392.528 581.124C392.448 577.779 392.121 572.13 391.477 568.964C393.414 567.826 397.599 566.313 398.432 565.041C399.001 561.212 394.525 556.887 391.441 555.221C388.838 555.131 388.706 556.143 387.229 556.768C382.717 558.677 381.271 546.049 375.891 542.831C371.26 539.973 366.013 536.583 361.494 533.669C351.619 527.301 344.169 521.186 332.259 519.33C329.525 518.556 324.038 510.385 323.477 508.181C322.098 502.764 335.323 496.231 339.078 492.347C348.599 482.501 351.513 471.298 357.805 459.77C367.941 453.507 391.938 446.954 403.765 445.692Z"/><path fill="#0F0F0F" d="M604.904 376.341C607.769 378.339 612.749 383.775 615.536 386.481C620.451 391.23 625.715 395.603 631.285 399.564C638.332 404.592 646.547 409.9 654.912 412.614C677.32 419.884 659.178 440.222 655.255 453.648C651.511 466.459 651.612 481.892 647.581 493.793C644.449 495.117 641.728 496.308 638.683 497.814C633.948 505.007 634.695 509.291 626.504 514.341C620.891 517.803 615.221 523.99 609.488 527.441L609.402 518.532C609.428 511.771 609.149 498.213 610.1 491.836C613.624 490.6 616.166 489.658 619.549 488.111C621.893 491.313 624.369 495.259 628.865 495.008C634.066 492.292 631.767 482.436 631.117 477.549C641.301 466.274 644.479 463.118 647.594 447.717C653.091 420.545 634.529 422.932 615.691 420.653C607.144 419.62 596.068 416.135 586.909 414.728C596.7 399.032 599.234 393.981 604.904 376.341Z"/><path fill="#0F0F0F" d="M329.434 826.29C338.117 825.374 350.711 824.95 357.465 831.184C362.759 836.07 364.397 847.367 358.741 852.579C351.521 859.235 340.613 858.557 331.519 858.446C331.509 864.874 330.741 872.903 331.909 879.165C332.201 880.731 333.474 881.431 334.777 882.162C336.728 882.392 339.3 882.332 339.728 884.447C337.101 885.695 317.053 886.057 314.858 884.837C315.987 882.287 322.71 881.161 322.734 877.499C322.826 863.558 322.562 849.607 322.789 835.666C322.88 830.038 317.211 830.311 314.627 827.891L314.738 826.903C318.401 826.406 325.267 826.515 329.434 826.29Z"/><path fill="#FBFBFA" d="M335.004 828.563C352.785 827.376 358.935 844.813 347.509 853.322L346.851 853.827C341.153 857.071 337.646 856.427 331.509 855.806C331.468 848.424 331.364 838.572 331.589 831.003C331.614 830.191 334.231 828.971 335.004 828.563Z"/><path fill="#0F0F0F" d="M677.594 820.383L678.241 820.546C679.512 822.174 679.047 848.893 679.056 853.611C683.03 849.672 688.758 845.727 694.636 847.154C709.814 850.839 702.044 870.672 705.086 881.212C705.578 882.917 709.811 882.544 711.325 884.758L710.784 885.439C708.335 885.923 691.317 886.196 689.304 884.851C691.193 883.369 695.348 882.93 695.709 882.163C697.571 878.213 696.76 862.481 696.257 858.515C693.17 851.295 685.269 849.007 680.91 855.298C677.931 859.598 679.352 875.306 679.95 880.702C680.154 882.54 684.092 883.486 685.976 884.523L685.986 885.224C684.346 886.012 668.462 886 665.908 885.238L665.395 884.161L665.925 883.556C667.038 883.256 670.523 882.526 670.651 880.987C672.021 864.588 671.602 847.386 671.171 830.895C671.118 828.875 668.075 828.78 667.171 826.437C668.536 824.888 675.488 821.491 677.594 820.383Z"/><path fill="#0F0F0F" d="M513.444 825.585C522.136 824.855 525.702 825.626 534.09 828.046C534.183 831.211 534.703 840.065 533.981 842.503C532.285 842.427 527.979 832.953 524.091 830.011C517.683 824.096 505.767 830.389 508.02 838.984C511.524 852.35 536.765 851.154 538.995 865.969C541.083 879.842 531.171 885.194 519.385 887.093C510.785 887.131 507.858 886.434 499.609 883.571C499.161 880.568 498.327 867.636 499.601 865.682C499.88 865.786 500.16 865.89 500.44 865.994C502.517 872.096 505.223 878.063 510.78 881.836C513.806 883.89 517.929 885.286 521.878 884.374C525.533 883.53 528.475 880.882 530.353 877.641C531.454 875.741 531.903 873.161 531.094 871.037C528.344 863.823 519.356 860.592 513.006 857.252C507.408 854.307 502.91 850.519 501.044 844.3C499.844 840.297 500.71 835.704 502.866 832.192C505.402 828.06 508.97 826.672 513.444 825.585Z"/><path fill="#0F0F0F" d="M376.152 847.105C379.798 846.843 383.445 847.359 386.509 849.565C391.26 853.075 389.422 858.507 390.014 863.344C390.6 868.143 388.259 878.905 392.293 881.882C393.604 882.85 397.833 879.05 397.397 881.706C397.172 883.082 393.638 885.501 392.52 886.118C386.376 888.716 384.346 884.579 382.131 880.48C375.901 885.454 370.099 890.273 362.274 884.347C353.519 870.913 373.787 865.412 382.514 862.543C382.472 856.902 382.189 846.324 371.778 851.087C368.901 852.403 371.147 859.04 367.001 860.399C362.361 861.921 361.402 857.02 363.565 853.993C366.716 849.844 371.185 848.09 376.152 847.105Z"/><path fill="#FBFBFA" d="M381.128 865.529C383.576 865.815 382.454 875.436 382.443 877.94C378.065 881.303 376.234 882.52 370.812 881.187C362.085 873.184 373.945 867.436 381.128 865.529Z"/><path fill="#0F0F0F" d="M558.665 852.795C566.801 843.834 575.004 845.157 581.286 855.135C584.437 851.172 587.918 847.727 593.258 847.198C613.647 845.177 603.154 872.693 607.373 881.81C609.361 882.827 612.021 883.461 612.953 884.662C612.145 885.593 611.485 885.728 610.029 885.66C606.371 885.489 595.094 886.051 592.284 885.174L592.11 884.533C593.751 882.865 595.361 883.193 596.965 882.391C599.195 881.276 599.364 875.847 599.299 873.395C599.112 866.343 601.278 852.246 590.615 852.2C586.913 852.184 584.102 855.153 582.03 857.845C582.144 862.3 581.967 866.874 581.931 871.323C581.858 880.054 580.379 880.929 588.584 884.365L588.549 885.046C585.464 886.549 569.172 885.906 565.415 885.456L565.91 885.194C568.225 883.987 573.728 882.775 574.052 879.916C575.078 870.875 576.941 845.828 560.338 853.998L558.665 852.795Z"/><path fill="#0F0F0F" d="M410.325 837.779C412.431 839.233 411.459 845.919 411.473 848.742C412.669 848.843 427.427 847.663 423.003 852.553C422.554 853.05 413.775 852.908 411.549 852.978C411.425 859.884 408.585 880.978 416.752 881.485C419.836 881.677 421.172 879.587 422.775 878.621C423.191 878.371 424.566 879.838 422.921 881.572L422.479 882.053C399.618 900.949 404.128 864.848 404.07 853.056C401.404 853.033 398.739 852.984 396.074 852.908C407.425 844.238 402.861 849.326 410.325 837.779Z"/><path fill="#0F0F0F" d="M437.849 837.768C439.787 839.32 438.968 846.208 438.993 848.857L440.744 849.05C443.981 849.432 447.037 849.293 450.179 849.668C450.767 849.738 450.647 852.647 450.303 852.712C447.084 853.311 442.277 853.019 438.96 853.045C438.906 858.045 439.331 870.552 438.938 874.504C437.56 888.381 455.219 875.153 449.934 881.392L449.54 881.875C445.51 885.676 440.033 889.09 434.508 884.961C433.485 884.196 431.716 880.981 431.637 879.742C431.081 870.93 431.704 862.044 431.314 853.193C429.072 852.734 427.419 852.592 425.192 852.275C434.299 844.805 431.45 845.048 437.849 837.768Z"/><path fill="#0F0F0F" d="M649.161 837.773C650.686 839.138 650.002 846.645 650.011 849.062C650.934 849.079 660.034 848.985 661.155 849.319C661.777 849.594 661.574 852.234 661.293 852.411C659.593 853.481 651.685 853.02 650.078 853.034C649.943 860.907 649.73 869.404 650.534 877.254C650.668 878.562 651.617 879.849 652.768 880.49C655.995 882.488 658.723 879.485 661.226 878.974C664.008 878.406 661.495 881.937 661.03 882.467C638.38 899.836 642.799 865.093 642.687 853.499C641.402 853.451 637.638 854.204 637.35 852.524C637.171 851.482 639.194 850.112 639.815 849.656C644.002 846.58 646.471 842.091 649.161 837.773Z"/><path fill="#0F0F0F" d="M543.827 852.836C549.053 850.301 552.012 848.112 556.661 845.705C556.926 848.672 556.781 851.938 557.368 854.578C557.979 853.856 558.157 853.605 558.665 852.795L560.338 853.998L559.718 854.58C559.301 854.982 558.91 855.299 558.39 855.551C557.949 856.375 557.509 857.198 557.069 858.021C557.186 865.449 556.206 874.297 557.603 881.47C557.912 883.056 564.233 884.375 565.757 884.851C560.014 886.173 549.857 886.126 543.847 885.631L543.864 885.661C537.893 884.636 548.539 883.381 548.886 880.159C549.645 873.113 549.605 866.322 549.315 859.242C549.187 856.121 546.003 854.554 543.827 852.836Z"/><path fill="#302F2E" d="M558.665 852.795L560.338 853.998L559.718 854.58C559.301 854.982 558.91 855.299 558.39 855.551C557.951 855.086 557.85 854.948 557.368 854.578C557.979 853.856 558.157 853.605 558.665 852.795Z"/><path fill="#0F0F0F" d="M467.461 846.407C469.588 848.243 467.318 876.096 468.894 880.505C469.701 882.764 475.403 883.945 478.148 885.06C470.747 886 463.398 885.521 455.875 885.572C449.392 885.134 460.021 881.773 460.407 881.612C461.023 874.876 460.997 865.356 460.464 858.489C460.311 856.521 456.949 854.876 455.369 853.904C459.149 851.442 463.552 848.86 467.461 846.407Z"/><path fill="#0F0F0F" d="M627.324 846.81C627.408 846.839 628.688 847.241 628.724 847.482C630.314 858.079 628.866 869.478 629.687 880.205C629.736 880.844 631.192 882.524 631.79 882.702C645.337 886.735 623.792 885.762 621.544 885.743C612.145 885.619 615.199 884.329 621.486 881.531C621.844 874.781 622.077 864.396 621.408 857.809C619.497 855.475 619.245 855.312 617.039 853.268C617.385 853.095 617.733 852.925 618.083 852.759C621.984 850.892 623.829 849.034 627.324 846.81Z"/><path fill="#0F0F0F" d="M622.975 828.198C625.118 827.501 627.428 828.622 628.206 830.736C628.985 832.85 627.954 835.202 625.872 836.062C624.451 836.648 622.824 836.411 621.63 835.443C620.437 834.475 619.868 832.931 620.149 831.42C620.429 829.909 621.514 828.673 622.975 828.198Z"/><path fill="#0F0F0F" d="M461.353 828.339C462.674 827.56 464.317 827.569 465.63 828.363C466.943 829.156 467.714 830.607 467.639 832.139C467.563 833.671 466.653 835.039 465.268 835.699C463.252 836.661 460.837 835.865 459.788 833.893C458.739 831.921 459.428 829.473 461.353 828.339Z"/></svg>